<?xml version="1.0" encoding="UTF-8" standalone="no"?>
<!DOCTYPE svg PUBLIC "-//W3C//DTD SVG 1.1//EN" "http://www.w3.org/Graphics/SVG/1.1/DTD/svg11.dtd">
<svg width="100%" height="100%" viewBox="0 0 3508 1182" version="1.1" xmlns="http://www.w3.org/2000/svg" xmlns:xlink="http://www.w3.org/1999/xlink" xml:space="preserve" xmlns:serif="http://www.serif.com/" style="fill-rule:evenodd;clip-rule:evenodd;stroke-linecap:round;stroke-linejoin:round;stroke-miterlimit:1.5;">
    <g transform="matrix(0.498536,0,0,0.498536,-56.487554,61.559078)">
        <path d="M1696.144,646.478L1696.144,1475.703C1696.144,1573.774 1616.523,1653.394 1518.453,1653.394L689.227,1653.394C591.157,1653.394 511.536,1573.774 511.536,1475.703L511.536,646.478C511.536,548.407 591.157,468.786 689.227,468.786L1518.453,468.786C1616.523,468.786 1696.144,548.407 1696.144,646.478Z" style="stroke:rgb(48,48,48);stroke-width:94.77px;"/>
    </g>
    <g transform="matrix(1,0,0,1,0.339594,-643.132952)">
        <path d="M272.361,1114.222L272.361,1101.631L302.762,1101.631L302.762,1014.112L272.361,1036.836L272.361,1021.021L297.695,1002.135L316.581,1002.135L316.581,1101.631L341.455,1101.631L341.455,1114.222L272.361,1114.222Z" style="fill:white;fill-rule:nonzero;"/>
        <path d="M389.975,1099.635L389.975,1069.694L360.648,1069.694L360.648,1057.411L389.975,1057.411L389.975,1027.47L403.487,1027.47L403.487,1057.411L432.814,1057.411L432.814,1069.694L403.487,1069.694L403.487,1099.635L389.975,1099.635Z" style="fill:white;fill-rule:nonzero;"/>
        <path d="M455.999,1114.222L455.999,1101.478L493.31,1061.557C498.735,1055.824 502.573,1050.706 504.825,1046.202C507.077,1041.698 508.203,1037.297 508.203,1032.998C508.203,1026.856 506.438,1021.968 502.906,1018.334C499.375,1014.7 494.589,1012.883 488.55,1012.883C482.306,1012.883 477.367,1014.752 473.733,1018.488C470.099,1022.224 468.282,1027.265 468.282,1033.612L454.463,1033.612C454.77,1023.478 457.995,1015.442 464.136,1009.505C470.278,1003.568 478.416,1000.6 488.55,1000.6C498.888,1000.6 507.103,1003.517 513.193,1009.352C519.284,1015.187 522.329,1023.12 522.329,1033.151C522.329,1038.474 520.871,1044.104 517.953,1050.041C515.036,1055.978 510.046,1062.631 502.983,1070.002L472.735,1101.631L523.711,1101.631L523.711,1114.222L455.999,1114.222Z" style="fill:white;fill-rule:nonzero;"/>
        <path d="M547.971,1051.269L547.971,1038.986L613.995,1038.986L613.995,1051.269L547.971,1051.269ZM547.971,1088.12L547.971,1075.836L613.995,1075.836L613.995,1088.12L547.971,1088.12Z" style="fill:white;fill-rule:nonzero;"/>
        <path d="M658.676,1081.21L658.676,1055.108L666.353,1055.108C672.904,1055.108 678.099,1053.291 681.938,1049.657C685.776,1046.023 687.695,1041.187 687.695,1035.147C687.695,1029.108 685.776,1024.271 681.938,1020.637C678.099,1017.003 672.853,1015.187 666.199,1015.187L647.006,1015.187L647.006,1002.135L666.199,1002.135C673.365,1002.135 679.583,1003.492 684.855,1006.204C690.127,1008.917 694.221,1012.73 697.138,1017.643C700.056,1022.557 701.514,1028.391 701.514,1035.147C701.514,1040.982 700.286,1046.228 697.829,1050.885C695.373,1055.543 691.969,1059.253 687.619,1062.017C683.268,1064.781 678.227,1066.316 672.495,1066.624L672.495,1081.21L658.676,1081.21ZM663.128,1114.99C660.467,1114.99 658.266,1114.12 656.526,1112.379C654.786,1110.639 653.916,1108.439 653.916,1105.777C653.916,1103.116 654.786,1100.915 656.526,1099.175C658.266,1097.435 660.467,1096.565 663.128,1096.565L667.735,1096.565C670.703,1096.565 672.981,1097.409 674.567,1099.098C676.154,1100.787 676.947,1102.962 676.947,1105.624C676.947,1108.285 676.077,1110.511 674.337,1112.303C672.597,1114.094 670.396,1114.99 667.735,1114.99L663.128,1114.99Z" style="fill:white;fill-rule:nonzero;"/>
        <path d="M270.211,1308.301L270.211,1290.643L314.739,1270.068C316.786,1269.147 318.808,1268.379 320.804,1267.765C322.8,1267.151 324.361,1266.691 325.487,1266.383C324.361,1266.179 322.774,1265.769 320.727,1265.155C318.68,1264.541 316.684,1263.824 314.739,1263.005L270.211,1242.277L270.211,1224.313L338.999,1256.71L338.999,1275.903L270.211,1308.301Z" style="fill:white;fill-rule:nonzero;"/>
        <rect x="359.88" y="1320.738" width="73.701" height="17.35" style="fill:white;fill-rule:nonzero;"/>
    </g>
    <g transform="matrix(1,0,0,1,235.75883,-649.606299)">
        <path d="M1796.644,1209.449L1796.644,1037.008L1835.148,1037.008L1854.518,1111.181L1874.124,1037.008L1912.865,1037.008L1912.865,1209.449L1885.227,1209.449L1885.227,1136.929C1885.227,1127.008 1885.502,1116.732 1886.054,1106.102C1886.605,1095.472 1887.274,1085.157 1888.061,1075.157C1888.849,1065.157 1889.715,1056.063 1890.66,1047.874L1866.329,1134.567L1841.998,1134.567L1818.613,1050C1820.03,1060.866 1821.329,1073.819 1822.51,1088.858C1823.691,1103.898 1824.282,1119.921 1824.282,1136.929L1824.282,1209.449L1796.644,1209.449Z" style="fill:rgb(48,48,48);fill-rule:nonzero;stroke:rgb(192,192,192);stroke-width:2.95px;stroke-linecap:butt;stroke-miterlimit:2;"/>
        <path d="M1982.077,1211.811C1968.849,1211.811 1958.416,1208.071 1950.778,1200.591C1943.14,1193.11 1939.321,1183.307 1939.321,1171.181C1939.321,1158.583 1943.652,1148.543 1952.313,1141.063C1960.975,1133.583 1972.865,1129.843 1987.983,1129.843L2019.636,1129.843L2019.636,1120.63C2019.636,1107.559 2011.998,1101.024 1996.723,1101.024C1989.794,1101.024 1984.282,1102.362 1980.187,1105.039C1976.093,1107.717 1973.809,1111.496 1973.337,1116.378L1944.991,1116.378C1945.62,1104.724 1950.542,1095.276 1959.754,1088.031C1968.967,1080.787 1981.369,1077.165 1996.959,1077.165C2013.494,1077.165 2026.329,1081.024 2035.463,1088.74C2044.597,1096.457 2049.164,1107.323 2049.164,1121.339L2049.164,1209.449L2020.345,1209.449L2020.345,1185.118C2019.243,1193.465 2015.306,1200 2008.534,1204.724C2001.762,1209.449 1992.943,1211.811 1982.077,1211.811ZM1991.526,1187.717C2000.187,1187.717 2007.038,1185.591 2012.077,1181.339C2017.117,1177.087 2019.636,1171.417 2019.636,1164.331L2019.636,1148.976L1989.4,1148.976C1982.943,1148.976 1977.825,1150.787 1974.046,1154.409C1970.266,1158.031 1968.376,1162.677 1968.376,1168.346C1968.376,1174.173 1970.384,1178.858 1974.4,1182.402C1978.416,1185.945 1984.124,1187.717 1991.526,1187.717Z" style="fill:rgb(48,48,48);fill-rule:nonzero;stroke:rgb(192,192,192);stroke-width:2.95px;stroke-linecap:butt;stroke-miterlimit:2;"/>
        <path d="M2151.211,1209.449C2139.085,1209.449 2129.439,1205.945 2122.274,1198.937C2115.109,1191.929 2111.526,1182.441 2111.526,1170.472L2111.526,1106.22L2075.62,1106.22L2075.62,1079.528L2111.526,1079.528L2111.526,1042.913L2141.29,1042.913L2141.29,1079.528L2193.022,1079.528L2193.022,1106.22L2141.29,1106.22L2141.29,1169.764C2141.29,1173.543 2142.353,1176.654 2144.479,1179.094C2146.605,1181.535 2149.557,1182.756 2153.337,1182.756L2191.841,1182.756L2191.841,1209.449L2151.211,1209.449Z" style="fill:rgb(48,48,48);fill-rule:nonzero;stroke:rgb(192,192,192);stroke-width:2.95px;stroke-linecap:butt;stroke-miterlimit:2;"/>
        <path d="M2227.274,1209.449L2227.274,1037.008L2256.802,1037.008L2256.802,1079.528L2256.093,1103.622C2257.668,1095.433 2261.526,1088.976 2267.668,1084.252C2273.809,1079.528 2281.605,1077.165 2291.054,1077.165C2303.809,1077.165 2314.006,1081.417 2321.644,1089.921C2329.282,1098.425 2333.101,1109.843 2333.101,1124.173L2333.101,1209.449L2303.573,1209.449L2303.573,1127.717C2303.573,1119.685 2301.487,1113.504 2297.313,1109.173C2293.14,1104.843 2287.51,1102.677 2280.424,1102.677C2273.022,1102.677 2267.235,1104.882 2263.061,1109.291C2258.888,1113.701 2256.802,1120 2256.802,1128.189L2256.802,1209.449L2227.274,1209.449Z" style="fill:rgb(48,48,48);fill-rule:nonzero;stroke:rgb(192,192,192);stroke-width:2.95px;stroke-linecap:butt;stroke-miterlimit:2;"/>
        <path d="M2564.361,1211.811C2553.18,1211.811 2543.494,1209.724 2535.306,1205.551C2527.117,1201.378 2520.778,1195.472 2516.29,1187.835C2511.802,1180.197 2509.557,1171.181 2509.557,1160.787L2509.557,1085.669C2509.557,1075.276 2511.802,1066.26 2516.29,1058.622C2520.778,1050.984 2527.117,1045.079 2535.306,1040.906C2543.494,1036.732 2553.18,1034.646 2564.361,1034.646C2575.384,1034.646 2584.991,1036.732 2593.18,1040.906C2601.369,1045.079 2607.746,1050.984 2612.313,1058.622C2616.88,1066.26 2619.164,1075.276 2619.164,1085.669L2589.4,1085.669C2589.4,1077.638 2587.235,1071.457 2582.904,1067.126C2578.573,1062.795 2572.392,1060.63 2564.361,1060.63C2556.329,1060.63 2550.109,1062.756 2545.699,1067.008C2541.29,1071.26 2539.085,1077.402 2539.085,1085.433L2539.085,1160.787C2539.085,1168.819 2541.29,1175.039 2545.699,1179.449C2550.109,1183.858 2556.329,1186.063 2564.361,1186.063C2572.392,1186.063 2578.573,1183.858 2582.904,1179.449C2587.235,1175.039 2589.4,1168.819 2589.4,1160.787L2589.4,1141.654L2560.109,1141.654L2560.109,1116.142L2619.164,1116.142L2619.164,1160.787C2619.164,1171.181 2616.88,1180.197 2612.313,1187.835C2607.746,1195.472 2601.369,1201.378 2593.18,1205.551C2584.991,1209.724 2575.384,1211.811 2564.361,1211.811Z" style="fill:rgb(48,48,48);fill-rule:nonzero;stroke:rgb(192,192,192);stroke-width:2.95px;stroke-linecap:butt;stroke-miterlimit:2;"/>
        <path d="M2690.739,1211.811C2677.51,1211.811 2667.077,1208.071 2659.439,1200.591C2651.802,1193.11 2647.983,1183.307 2647.983,1171.181C2647.983,1158.583 2652.313,1148.543 2660.975,1141.063C2669.636,1133.583 2681.526,1129.843 2696.644,1129.843L2728.298,1129.843L2728.298,1120.63C2728.298,1107.559 2720.66,1101.024 2705.384,1101.024C2698.455,1101.024 2692.943,1102.362 2688.849,1105.039C2684.754,1107.717 2682.471,1111.496 2681.998,1116.378L2653.652,1116.378C2654.282,1104.724 2659.203,1095.276 2668.416,1088.031C2677.628,1080.787 2690.03,1077.165 2705.62,1077.165C2722.156,1077.165 2734.991,1081.024 2744.124,1088.74C2753.258,1096.457 2757.825,1107.323 2757.825,1121.339L2757.825,1209.449L2729.006,1209.449L2729.006,1185.118C2727.904,1193.465 2723.967,1200 2717.195,1204.724C2710.424,1209.449 2701.605,1211.811 2690.739,1211.811ZM2700.187,1187.717C2708.849,1187.717 2715.699,1185.591 2720.739,1181.339C2725.778,1177.087 2728.298,1171.417 2728.298,1164.331L2728.298,1148.976L2698.061,1148.976C2691.605,1148.976 2686.487,1150.787 2682.707,1154.409C2678.928,1158.031 2677.038,1162.677 2677.038,1168.346C2677.038,1174.173 2679.046,1178.858 2683.061,1182.402C2687.077,1185.945 2692.786,1187.717 2700.187,1187.717Z" style="fill:rgb(48,48,48);fill-rule:nonzero;stroke:rgb(192,192,192);stroke-width:2.95px;stroke-linecap:butt;stroke-miterlimit:2;"/>
        <path d="M2787.117,1209.449L2787.117,1079.528L2811.683,1079.528L2811.683,1098.425L2812.392,1098.425C2812.865,1092.126 2815.069,1087.008 2819.006,1083.071C2822.943,1079.134 2827.904,1077.165 2833.888,1077.165C2839.715,1077.165 2844.676,1079.016 2848.77,1082.717C2852.865,1086.417 2855.62,1091.417 2857.038,1097.717C2857.668,1091.417 2859.991,1086.417 2864.006,1082.717C2868.022,1079.016 2873.101,1077.165 2879.243,1077.165C2887.117,1077.165 2893.652,1080.276 2898.849,1086.496C2904.046,1092.717 2906.644,1100.709 2906.644,1110.472L2906.644,1209.449L2880.66,1209.449L2880.66,1112.598C2880.66,1108.346 2879.676,1105 2877.707,1102.559C2875.739,1100.118 2872.943,1098.898 2869.321,1098.898C2862.235,1098.898 2858.691,1103.465 2858.691,1112.598L2858.691,1209.449L2835.069,1209.449L2835.069,1112.598C2835.069,1108.346 2834.164,1105 2832.353,1102.559C2830.542,1100.118 2827.904,1098.898 2824.439,1098.898C2816.88,1098.898 2813.101,1103.465 2813.101,1112.598L2813.101,1209.449L2787.117,1209.449Z" style="fill:rgb(48,48,48);fill-rule:nonzero;stroke:rgb(192,192,192);stroke-width:2.95px;stroke-linecap:butt;stroke-miterlimit:2;"/>
        <path d="M2988.849,1211.811C2977.825,1211.811 2968.219,1209.685 2960.03,1205.433C2951.841,1201.181 2945.502,1195.157 2941.014,1187.362C2936.526,1179.567 2934.282,1170.394 2934.282,1159.843L2934.282,1129.134C2934.282,1118.583 2936.526,1109.409 2941.014,1101.614C2945.502,1093.819 2951.841,1087.795 2960.03,1083.543C2968.219,1079.291 2977.825,1077.165 2988.849,1077.165C2999.715,1077.165 3009.203,1079.291 3017.313,1083.543C3025.424,1087.795 3031.723,1093.74 3036.211,1101.378C3040.699,1109.016 3042.943,1117.953 3042.943,1128.189L3042.943,1151.811L2962.628,1151.811L2962.628,1160.787C2962.628,1169.606 2964.912,1176.26 2969.479,1180.748C2974.046,1185.236 2980.502,1187.48 2988.849,1187.48C2994.991,1187.48 3000.227,1186.417 3004.557,1184.291C3008.888,1182.165 3011.447,1179.055 3012.235,1174.961L3041.526,1174.961C3039.479,1186.142 3033.652,1195.079 3024.046,1201.772C3014.439,1208.465 3002.707,1211.811 2988.849,1211.811ZM2962.628,1128.189L2962.628,1132.677L3014.597,1132.441L3014.597,1127.953C3014.597,1118.976 3012.392,1112.047 3007.983,1107.165C3003.573,1102.283 2997.195,1099.843 2988.849,1099.843C2980.187,1099.843 2973.652,1102.323 2969.243,1107.283C2964.833,1112.244 2962.628,1119.213 2962.628,1128.189Z" style="fill:rgb(48,48,48);fill-rule:nonzero;stroke:rgb(192,192,192);stroke-width:2.95px;stroke-linecap:butt;stroke-miterlimit:2;"/>
        <path d="M2321.585,1443.307L2354.183,1313.976L2382.707,1313.976L2415.483,1443.307L2392.806,1443.307L2385.719,1411.949L2351.349,1411.949L2344.262,1443.307L2321.585,1443.307ZM2355.424,1393.878L2381.644,1393.878L2373.849,1359.154C2372.55,1353.366 2371.428,1348.14 2370.483,1343.474C2369.538,1338.809 2368.888,1335.413 2368.534,1333.287C2368.18,1335.413 2367.53,1338.809 2366.585,1343.474C2365.64,1348.14 2364.518,1353.307 2363.219,1358.976L2355.424,1393.878Z" style="fill:rgb(48,48,48);fill-rule:nonzero;stroke:rgb(192,192,192);stroke-width:2.95px;stroke-linecap:butt;stroke-miterlimit:2;"/>
        <path d="M2435.325,1443.307L2435.325,1313.976L2476.073,1313.976C2484.695,1313.976 2492.166,1315.571 2498.485,1318.76C2504.804,1321.949 2509.735,1326.407 2513.278,1332.136C2516.821,1337.864 2518.593,1344.626 2518.593,1352.421C2518.593,1361.043 2516.467,1368.573 2512.215,1375.01C2507.963,1381.447 2502.235,1386.024 2495.03,1388.74L2520.365,1443.307L2496.093,1443.307L2473.416,1391.929L2457.294,1391.929L2457.294,1443.307L2435.325,1443.307ZM2457.294,1372.441L2476.073,1372.441C2482.333,1372.441 2487.235,1370.728 2490.778,1367.303C2494.321,1363.878 2496.093,1359.154 2496.093,1353.13C2496.093,1347.106 2494.292,1342.323 2490.689,1338.78C2487.087,1335.236 2482.215,1333.465 2476.073,1333.465L2457.294,1333.465L2457.294,1372.441Z" style="fill:rgb(48,48,48);fill-rule:nonzero;stroke:rgb(192,192,192);stroke-width:2.95px;stroke-linecap:butt;stroke-miterlimit:2;"/>
        <path d="M2582.55,1445.079C2574.164,1445.079 2566.9,1443.514 2560.758,1440.384C2554.617,1437.254 2549.863,1432.825 2546.496,1427.096C2543.13,1421.368 2541.447,1414.606 2541.447,1406.811L2541.447,1350.472C2541.447,1342.677 2543.13,1335.915 2546.496,1330.187C2549.863,1324.459 2554.617,1320.03 2560.758,1316.9C2566.9,1313.77 2574.164,1312.205 2582.55,1312.205C2590.817,1312.205 2598.022,1313.77 2604.164,1316.9C2610.306,1320.03 2615.089,1324.459 2618.514,1330.187C2621.939,1335.915 2623.652,1342.677 2623.652,1350.472L2601.329,1350.472C2601.329,1344.449 2599.705,1339.813 2596.457,1336.565C2593.209,1333.317 2588.573,1331.693 2582.55,1331.693C2576.526,1331.693 2571.861,1333.317 2568.554,1336.565C2565.246,1339.813 2563.593,1344.449 2563.593,1350.472L2563.593,1406.811C2563.593,1412.835 2565.246,1417.47 2568.554,1420.719C2571.861,1423.967 2576.526,1425.591 2582.55,1425.591C2588.573,1425.591 2593.209,1423.967 2596.457,1420.719C2599.705,1417.47 2601.329,1412.835 2601.329,1406.811L2623.652,1406.811C2623.652,1414.606 2621.939,1421.368 2618.514,1427.096C2615.089,1432.825 2610.306,1437.254 2604.164,1440.384C2598.022,1443.514 2590.817,1445.079 2582.55,1445.079Z" style="fill:rgb(48,48,48);fill-rule:nonzero;stroke:rgb(192,192,192);stroke-width:2.95px;stroke-linecap:butt;stroke-miterlimit:2;"/>
        <path d="M2647.924,1443.307L2647.924,1313.976L2670.069,1313.976L2670.069,1366.417L2704.794,1366.417L2704.794,1313.976L2726.939,1313.976L2726.939,1443.307L2704.794,1443.307L2704.794,1386.437L2670.069,1386.437L2670.069,1443.307L2647.924,1443.307Z" style="fill:rgb(48,48,48);fill-rule:nonzero;stroke:rgb(192,192,192);stroke-width:2.95px;stroke-linecap:butt;stroke-miterlimit:2;"/>
        <path d="M2756.526,1443.307L2756.526,1423.287L2782.569,1423.287L2782.569,1333.996L2756.526,1333.996L2756.526,1313.976L2830.935,1313.976L2830.935,1333.996L2804.892,1333.996L2804.892,1423.287L2830.935,1423.287L2830.935,1443.307L2756.526,1443.307Z" style="fill:rgb(48,48,48);fill-rule:nonzero;stroke:rgb(192,192,192);stroke-width:2.95px;stroke-linecap:butt;stroke-miterlimit:2;"/>
        <path d="M2885.68,1443.307L2853.081,1313.976L2875.935,1313.976L2895.601,1398.307C2896.664,1402.441 2897.638,1406.9 2898.524,1411.683C2899.41,1416.467 2900.089,1420.276 2900.561,1423.11C2901.034,1420.276 2901.713,1416.467 2902.599,1411.683C2903.485,1406.9 2904.459,1402.382 2905.522,1398.13L2924.479,1313.976L2946.979,1313.976L2914.38,1443.307L2885.68,1443.307Z" style="fill:rgb(48,48,48);fill-rule:nonzero;stroke:rgb(192,192,192);stroke-width:2.95px;stroke-linecap:butt;stroke-miterlimit:2;"/>
        <path d="M2968.77,1443.307L2968.77,1313.976L3046.369,1313.976L3046.369,1333.465L2990.561,1333.465L2990.561,1367.126L3040.168,1367.126L3040.168,1385.906L2990.561,1385.906L2990.561,1423.819L3046.369,1423.819L3046.369,1443.307L2968.77,1443.307Z" style="fill:rgb(48,48,48);fill-rule:nonzero;stroke:rgb(192,192,192);stroke-width:2.95px;stroke-linecap:butt;stroke-miterlimit:2;"/>
    </g>
</svg>
